<svg width="160" height="49" viewBox="0 0 160 49" fill="none" xmlns="http://www.w3.org/2000/svg">
<path d="M48.3652 38.5376V25.0469H51.4707V26.2687C52.3232 25.2109 53.3904 24.6792 54.6721 24.6792C55.5868 24.6792 56.4281 24.9451 57.2016 25.4711L55.8013 28.3107C55.2931 27.8808 54.706 27.6715 54.0341 27.6715C53.142 27.6715 52.47 28.0278 52.024 28.7406C51.657 29.3288 51.4763 30.2565 51.4763 31.5179V38.5376H48.3709H48.3652Z" fill="white"/>
<path d="M68.5898 33.5599L71.2097 35.0249C70.7015 35.9639 70.1143 36.7218 69.4424 37.3158C68.2059 38.4131 66.6419 38.9618 64.7504 38.9618C63.0226 38.9618 61.5038 38.3509 60.1939 37.1291C58.884 35.9073 58.229 34.1595 58.229 31.8799C58.229 29.6003 58.8162 27.9599 59.9963 26.6476C61.1763 25.3353 62.746 24.6792 64.7165 24.6792C67.0089 24.6792 68.7197 25.505 69.832 27.1511C70.662 28.3899 71.0798 30.0302 71.0798 32.0666V32.553H61.453C61.4756 33.69 61.8539 34.578 62.5935 35.2059C63.3332 35.8394 64.1632 36.1505 65.0779 36.1505C65.8684 36.1505 66.5798 35.9073 67.2121 35.4209C67.7824 34.9966 68.2397 34.3744 68.5842 33.5599H68.5898ZM61.645 29.9906H67.8897C67.709 29.2157 67.3363 28.6048 66.7774 28.158C66.2184 27.7111 65.5522 27.4848 64.7843 27.4848C64.0164 27.4848 63.3727 27.7111 62.8024 28.1692C62.2322 28.6274 61.8482 29.2327 61.645 29.985V29.9906Z" fill="white"/>
<path d="M74.3154 38.5376V25.0469H77.4209V26.2969C78.3525 25.2166 79.5833 24.6792 81.1078 24.6792C82.9146 24.6792 84.2358 25.2901 85.0658 26.5119C85.6135 27.3264 85.8902 28.5765 85.8902 30.2678V38.5376H82.7848V31.0314C82.7848 30.6242 82.7848 30.33 82.7678 30.149C82.7565 29.968 82.7114 29.6739 82.6323 29.2609C82.5533 28.8537 82.4291 28.5482 82.2653 28.3446C82.1016 28.141 81.8531 27.9487 81.52 27.762C81.1869 27.581 80.7747 27.4848 80.2835 27.4848C79.7923 27.4848 79.3349 27.581 78.9566 27.7733C78.5783 27.9656 78.296 28.1975 78.104 28.4747C77.9121 28.7519 77.7596 29.1082 77.6467 29.5607C77.5338 30.0076 77.466 30.4092 77.4491 30.7656C77.4265 31.1219 77.4209 31.5518 77.4209 32.0609V38.5319H74.3154V38.5376Z" fill="white"/>
<path d="M99.5992 26.6366V16.1099H102.705V38.5435H99.5992V37.1407C98.5659 38.3625 97.1714 38.9734 95.4267 38.9734C93.5182 38.9734 91.9712 38.2607 90.7798 36.8352C89.5941 35.4098 88.9956 33.7241 88.9956 31.767C88.9956 29.8099 89.5828 28.1978 90.7629 26.795C91.9429 25.3922 93.5352 24.6908 95.5452 24.6908C97.2899 24.6908 98.6393 25.3412 99.5992 26.6422V26.6366ZM95.9743 27.4907C94.8564 27.4907 93.953 27.9093 93.2642 28.7408C92.5753 29.578 92.2309 30.6244 92.2309 31.8858C92.2309 33.1472 92.5697 34.0975 93.2528 34.9233C93.9304 35.7492 94.8394 36.1564 95.98 36.1564C97.1205 36.1564 98.086 35.7548 98.7692 34.9516C99.4468 34.1484 99.7912 33.1246 99.7912 31.8858C99.7912 30.483 99.4185 29.397 98.6789 28.6333C97.9392 27.8697 97.0415 27.4907 95.9856 27.4907H95.9743Z" fill="white"/>
<path d="M116.171 33.5599L118.791 35.0249C118.283 35.9639 117.695 36.7218 117.023 37.3158C115.787 38.4131 114.223 38.9618 112.331 38.9618C110.604 38.9618 109.085 38.3509 107.775 37.1291C106.465 35.9073 105.81 34.1595 105.81 31.8799C105.81 29.6003 106.397 27.9599 107.577 26.6476C108.757 25.3353 110.327 24.6792 112.298 24.6792C114.59 24.6792 116.301 25.505 117.413 27.1511C118.243 28.3899 118.661 30.0302 118.661 32.0666V32.553H109.034C109.057 33.69 109.435 34.578 110.175 35.2059C110.914 35.8394 111.744 36.1505 112.659 36.1505C113.449 36.1505 114.161 35.9073 114.793 35.4209C115.363 34.9966 115.821 34.3744 116.165 33.5599H116.171ZM109.226 29.9906H115.471C115.29 29.2157 114.917 28.6048 114.358 28.158C113.799 27.7111 113.133 27.4848 112.365 27.4848C111.597 27.4848 110.954 27.7111 110.384 28.1692C109.813 28.6274 109.429 29.2327 109.226 29.985V29.9906Z" fill="white"/>
<path d="M121.902 16.104H125.007V38.5376H121.902V16.104Z" fill="white"/>
<path d="M128.784 16.104H131.89V38.5376H128.784V16.104Z" fill="white"/>
<path d="M145.599 25.0471H148.704V38.5378H145.599V37.135C144.565 38.3568 143.205 38.9677 141.517 38.9677C139.546 38.9677 137.965 38.2549 136.779 36.8295C135.594 35.4041 134.995 33.7298 134.995 31.7953C134.995 29.8607 135.582 28.1921 136.762 26.7893C137.942 25.3864 139.535 24.6851 141.545 24.6851C143.289 24.6851 144.639 25.3356 145.599 26.6366V25.0471ZM142.002 27.4907C140.884 27.4907 139.975 27.9092 139.275 28.7407C138.575 29.5779 138.225 30.613 138.225 31.8518C138.225 33.0906 138.564 34.0692 139.247 34.9007C139.924 35.7378 140.845 36.1507 142.002 36.1507C143.16 36.1507 144.08 35.7435 144.757 34.9289C145.435 34.1144 145.779 33.0793 145.779 31.8179C145.779 30.432 145.412 29.3686 144.684 28.6107C143.956 27.8583 143.058 27.4794 142.002 27.4794V27.4907Z" fill="white"/>
<path d="M16.5147 19.2659C9.95373 18.491 8.86399 9.0786 15.3289 7.38731C17.5592 6.80469 24.25 6.96874 26.644 7.29682C30.3705 7.8059 31.7086 12.0652 31.2174 15.3573C35.7683 15.0236 40.9289 15.8042 45.4064 15.3573C46.7107 15.2272 47.1906 13.8357 48.9127 13.6377C54.0734 13.0438 54.6493 21.5512 48.5231 20.8384C47.2245 20.6857 46.3324 19.2659 46.1856 19.2659H31.2231V37.1234C31.2231 38.4753 35.5368 40.0874 35.9207 36.094C36.2652 32.5247 35.3674 27.7507 35.9207 24.3624C36.2652 22.2526 39.2746 22.1394 39.5569 24.6C39.8787 27.4113 39.8392 34.2669 39.5456 37.1178C38.9979 42.5028 31.8329 44.1431 28.7444 40.127C28.3661 39.6349 27.5812 38.1755 27.5812 37.6438V19.6562L27.1917 19.2659C23.8096 18.9774 19.8233 19.6562 16.5203 19.2659H16.5147ZM15.9952 15.3516H27.186C28.0442 14.5541 27.4457 11.5618 26.4746 11.1093C25.7406 10.7699 18.0335 10.7756 16.7631 10.9C13.9908 11.1715 14.5893 14.9557 16.0008 15.346L15.9952 15.3516Z" fill="white"/>
</svg>
