<svg width="660" height="200" viewBox="0 0 660 200" fill="none" xmlns="http://www.w3.org/2000/svg">
<path d="M329.755 120.198C329.728 82.3198 330.022 64.0224 330.666 63.5656C331.815 62.75 341.359 62.6409 343.375 63.4206C344.666 63.9196 344.815 69.7907 344.815 120.333V176.689L337.305 176.422L329.795 176.156L329.755 120.198Z" fill="#030303"/>
<path d="M495.059 83.3555C490.88 78.0028 491.674 71.6813 496.853 69.0577C500.672 67.1221 500.664 67.123 504.527 68.7486C508.253 70.3182 509.577 72.5739 509.577 77.356C509.577 82.4913 506.168 85.7974 500.871 85.7974C497.725 85.7974 496.594 85.3223 495.059 83.3555Z" fill="#030303"/>
<path d="M456.918 109.19C459.697 103.908 462.13 101.457 467.248 98.7871C469.524 97.5991 472.682 96.8716 475.668 96.846L480.447 96.8056V104.206C480.447 111.305 480.37 111.582 478.537 110.996C472.032 108.915 463.482 113.953 459.371 122.289C457.33 126.427 457.215 127.722 456.78 151.388L456.325 176.156L449.27 176.424L442.216 176.692V144.685C442.216 127.081 441.951 109.519 441.627 105.659L441.039 98.6403H447.507H453.975L454.24 106.208L454.504 113.776L456.918 109.19Z" fill="#030303"/>
<path d="M494.102 176.615V137.589V98.5632L501.157 98.8311L508.211 99.099V137.855V176.611L501.157 176.613L494.102 176.615Z" fill="#030303"/>
<path d="M270.068 98.3488C277.207 95.9954 289.225 96.4307 294.659 99.2394C306.561 105.392 313.223 117.212 313.223 132.18V139.42L291.022 140.085C278.811 140.451 266.554 140.6 263.785 140.417L258.75 140.083L259.064 143.642C259.807 152.022 264 159.1 270.454 162.867C277.914 167.223 291.467 167.663 302.392 163.904C304.531 163.168 306.34 162.65 306.414 162.752C307.097 163.751 308.646 169.595 308.646 171.178C308.646 172.861 307.621 173.534 302.498 175.213C290.304 179.211 273.999 178.617 264.541 173.832C251.871 167.42 244.559 154.4 244.559 138.255C244.559 119.271 254.693 103.417 270.068 98.3488ZM286.962 108.217C281.839 106.392 277.646 106.638 272.417 109.069C266.993 111.592 262.575 116.547 260.606 122.318C257.893 130.268 256.577 129.75 279.473 129.75H299.74L299.175 125.641C298.29 119.952 294.24 113.609 292.326 111.149C291.298 110.221 288.884 108.901 286.962 108.217Z" fill="#030303"/>
<path d="M380.058 97.5468C381.821 97.0284 387.176 96.7196 391.959 96.8612C402.794 97.1803 408.686 99.4886 413.971 105.485C419.398 111.641 420.459 116.223 420.898 135.396C421.106 144.448 421.406 157.305 421.566 163.969L421.857 176.083H408.612L407.976 171.472L407.341 166.86L402.968 170.945C393.204 180.066 376.259 180.301 367.384 171.439C363.369 167.43 359.916 159.704 359.916 154.728C359.916 149.8 362.555 142.441 365.539 139.047C369.896 134.091 380.097 129.532 390.229 128.013C394.958 127.304 400.634 126.721 402.842 126.718L406.858 126.711L406.267 122.407C404.616 110.382 396.772 105.258 383.399 107.473C380.454 107.96 376.26 109.402 374.081 110.678C371.902 111.953 369.694 112.996 369.173 112.996C368.142 112.996 365.182 104.045 365.855 102.959C366.274 102.284 374.134 99.2891 380.058 97.5468ZM400.97 136.893C389.656 137.137 383.179 139.236 378.793 144.084C372.257 151.31 373.632 162.374 381.473 165.646C388.783 168.696 397.997 166.03 403.351 159.315C406.005 155.988 406.168 155.309 406.463 146.287L406.776 136.769L400.97 136.893Z" fill="#030303"/>
<path d="M545.809 97.5467C547.572 97.0283 552.928 96.7194 557.711 96.8611C568.545 97.1803 574.437 99.4885 579.722 105.485C585.149 111.641 586.21 116.223 586.649 135.396C586.857 144.448 587.157 157.304 587.317 163.968L587.608 176.083H574.363L573.728 171.471L573.092 166.86L568.72 170.945C558.956 180.066 542.01 180.301 533.135 171.438C529.12 167.429 525.668 159.704 525.667 154.728C525.667 149.8 528.306 142.44 531.29 139.046C535.647 134.09 545.849 129.532 555.981 128.012C560.71 127.304 566.385 126.72 568.593 126.717L572.609 126.711L572.018 122.407C570.367 110.381 562.523 105.257 549.15 107.471C546.205 107.959 542.011 109.402 539.832 110.678C537.653 111.953 535.445 112.996 534.924 112.996C533.893 112.996 530.933 104.045 531.606 102.959C532.023 102.284 539.884 99.2892 545.809 97.5467ZM566.721 136.893C555.407 137.137 548.93 139.235 544.544 144.083C538.008 151.308 539.383 162.373 547.224 165.645C554.534 168.695 563.749 166.03 569.103 159.315C571.757 155.988 571.919 155.309 572.214 146.287L572.527 136.768L566.721 136.893Z" fill="#030303"/>
<path d="M214.352 63.3974C214.377 62.9973 217.399 62.7912 221.068 62.9389L227.739 63.2079L228.301 78.3517C228.611 86.6807 228.922 112.183 228.992 135.023L229.118 176.551H216.237V163.871L210.413 169.681C205.637 174.446 203.622 175.772 199.209 177.051C177.823 183.252 157.84 166.412 156.627 141.165C156.137 130.959 157.449 124.291 161.561 116.092C165.191 108.855 171.821 102.158 178.315 99.1664C181.808 97.5567 184.358 97.1658 191.395 97.1658C201.386 97.1649 204.086 98.1822 210.53 104.378L214.483 108.178L214.394 86.1521C214.345 74.0378 214.327 63.7984 214.352 63.3974ZM198.236 108.952C192.107 107.414 188.502 108.021 182.766 111.557C173.833 117.064 169.252 131.649 172.031 145.739C173.495 153.167 175.656 157.299 180.223 161.415C188.409 168.792 200.618 168.232 207.451 160.167C212.859 153.783 213.886 150.006 213.913 136.404C213.936 124.521 213.834 123.84 211.408 119.724C208.164 114.22 203.269 110.217 198.236 108.952Z" fill="#030303"/>
<path d="M73.1217 47.4995C72.7486 47.4811 72.4426 41.659 72.4426 34.5622V21.659H84.6667H96.8908L97.0493 27.8802C97.1371 31.3023 97.1344 37.1088 97.0448 40.7834L96.8809 47.4654H116.806H136.732V67.7419V88.0184H117.239H98.0743H97.7456L97.9974 100.691L98.249 113.364L117.491 113.613L136.732 113.862V146.101V178.341H117.264H97.7963V146.109V113.877L85.3458 113.62L72.8953 113.364L72.6436 100.691L72.3918 88.0184H85.2326H97.7456H98.0743L97.5527 68.5816C97.2665 57.8913 96.898 49.024 96.7351 48.8756C96.5712 48.7273 91.3447 48.365 85.1194 48.07C78.8942 47.7751 73.4948 47.5179 73.1217 47.4995Z" fill="#030303"/>
</svg>
