<svg width="100" height="22" viewBox="0 0 100 22" fill="none" xmlns="http://www.w3.org/2000/svg">
<path d="M23.7108 14.1947C24.5892 14.7379 25.8767 15.1872 27.2312 15.1872C29.2395 15.1872 30.413 14.1277 30.413 12.5921C30.413 11.1706 29.6016 10.3592 27.5463 9.56793C25.0653 8.68951 23.5297 7.40205 23.5297 5.25628C23.5297 2.88588 25.4944 1.12567 28.4482 1.12567C30.0039 1.12567 31.1338 1.48776 31.8111 1.86998L31.2679 3.47261C30.7717 3.20103 29.7558 2.75175 28.3778 2.75175C26.3025 2.75175 25.5112 3.99227 25.5112 5.03163C25.5112 6.4532 26.4366 7.15393 28.5354 7.9653C31.107 8.95772 32.4179 10.1982 32.4179 12.4345C32.4179 14.7815 30.6812 16.8133 27.0937 16.8133C25.6252 16.8133 24.0259 16.3841 23.2112 15.8443L23.7074 14.1981L23.7108 14.1947Z" fill="#030303"/>
<path d="M37.2492 2.5942C37.2727 3.27145 36.7765 3.81125 35.9852 3.81125C35.2845 3.81125 34.7883 3.2681 34.7883 2.5942C34.7883 1.92029 35.308 1.35367 36.0288 1.35367C36.7497 1.35367 37.2459 1.89682 37.2459 2.5942H37.2492ZM35.0364 16.5853V5.66196H37.0212V16.5853H35.0364Z" fill="#030303"/>
<path d="M49.7282 5.66195C49.6846 6.4532 49.6377 7.33163 49.6377 8.66268V15.0028C49.6377 17.5073 49.1415 19.0429 48.082 19.9883C47.0225 20.9807 45.4869 21.2959 44.109 21.2959C42.731 21.2959 41.3563 20.9807 40.4746 20.394L40.9708 18.8819C41.6916 19.3345 42.8215 19.7402 44.176 19.7402C46.2078 19.7402 47.6964 18.6807 47.6964 15.9281V14.7111H47.6528C47.0426 15.7269 45.8692 16.5383 44.176 16.5383C41.467 16.5383 39.5257 14.235 39.5257 11.2141C39.5257 7.51268 41.9397 5.41385 44.4442 5.41385C46.3385 5.41385 47.3779 6.40628 47.8506 7.30817H47.8942L47.9848 5.66195H49.7215H49.7282ZM47.673 9.97362C47.673 9.63499 47.6495 9.3433 47.559 9.07173C47.1969 7.92173 46.2279 6.97289 44.7829 6.97289C42.8886 6.97289 41.534 8.57552 41.534 11.1035C41.534 13.2459 42.617 15.0296 44.7594 15.0296C45.9765 15.0296 47.0829 14.2618 47.512 12.9978C47.626 12.6592 47.6696 12.277 47.6696 11.9383V9.97362H47.673Z" fill="#030303"/>
<path d="M52.796 8.61909C52.796 7.48921 52.7725 6.5672 52.7054 5.66195H54.4656L54.5796 7.46574H54.6232C55.1664 6.42638 56.427 5.41385 58.2341 5.41385C59.7462 5.41385 62.0932 6.31574 62.0932 10.0641V16.5853H60.1083V10.2888C60.1083 8.52856 59.4545 7.0634 57.5804 7.0634C56.2728 7.0634 55.2569 7.98877 54.9183 9.09518C54.8277 9.34328 54.7841 9.68192 54.7841 10.0205V16.5886H52.7993V8.62245L52.796 8.61909Z" fill="#030303"/>
<path d="M71.367 16.5853L71.2094 15.2073H71.1423C70.5321 16.0656 69.3587 16.8334 67.803 16.8334C65.5902 16.8334 64.4636 15.2777 64.4636 13.6952C64.4636 11.0532 66.8106 9.61152 71.0317 9.63163V9.407C71.0317 8.50511 70.7836 6.87901 68.5506 6.87901C67.5348 6.87901 66.4753 7.19416 65.7075 7.69037L65.2549 6.3828C66.1568 5.79607 67.4677 5.41385 68.8423 5.41385C72.1817 5.41385 72.9931 7.69374 72.9931 9.88309V13.9668C72.9931 14.9156 73.0367 15.841 73.1741 16.5853H71.3703H71.367ZM71.0719 11.013C68.906 10.9694 66.4451 11.3516 66.4451 13.4739C66.4451 14.7614 67.3034 15.3682 68.3193 15.3682C69.7409 15.3682 70.6428 14.4663 70.9613 13.5409C71.0283 13.3364 71.0753 13.1118 71.0753 12.9106V11.0163L71.0719 11.013Z" fill="#030303"/>
<path d="M76.1949 0.562439H78.1798V16.5853H76.1949V0.562439Z" fill="#030303"/>
<path d="M91.4031 11.0331C91.4031 15.0732 88.6035 16.8334 85.9649 16.8334C83.0077 16.8334 80.7279 14.6675 80.7279 11.2141C80.7279 7.55961 83.1184 5.41385 86.1426 5.41385C89.1668 5.41385 91.3997 7.69373 91.3997 11.0331H91.4031ZM82.7362 11.1471C82.7362 13.5376 84.1142 15.3447 86.0521 15.3447C87.99 15.3447 89.3679 13.5611 89.3679 11.1035C89.3679 9.25278 88.4426 6.90583 86.0957 6.90583C83.7487 6.90583 82.7328 9.07173 82.7328 11.1471H82.7362Z" fill="#030303"/>
<path d="M93.9076 9.07176C93.9076 7.7843 93.8841 6.68123 93.8171 5.66534H95.5538L95.6208 7.80776H95.7114C96.2076 6.33925 97.4045 5.41724 98.7356 5.41724C98.9602 5.41724 99.1178 5.44071 99.2988 5.4843V7.35848C99.0943 7.31489 98.8931 7.29144 98.6216 7.29144C97.2235 7.29144 96.231 8.35091 95.9595 9.84289C95.9159 10.1145 95.8689 10.4296 95.8689 10.7683V16.592H93.9042V9.07845L93.9076 9.07176Z" fill="#030303"/>
<path d="M11.0239 3.58325V5.30322C11.0239 5.30322 11.0541 5.32335 11.0507 5.34012L11.0004 5.3904C10.3466 5.41387 9.68948 5.50775 9.07257 5.73239C6.95362 6.49682 5.18001 8.8974 5.42476 11.2209C5.62258 13.0884 8.04662 13.6952 8.95858 11.9652C9.04239 11.8042 9.31397 11.0398 9.05245 10.9962H7.41966C7.32243 9.63836 8.06674 8.27379 9.25697 7.62335C11.614 6.33589 14.6147 7.78764 14.8125 10.5168C15.1176 14.758 11.6542 18.4528 7.40624 18.4025V16.5954C7.84881 16.5954 8.32826 16.5451 8.76076 16.4445C11.2217 15.8644 13.2032 13.3633 13.0087 10.8018C12.9048 9.41037 11.3256 8.48165 10.1052 9.31649C9.68948 9.60148 9.32067 10.2519 9.26032 10.7414C9.25026 10.8152 9.2335 10.8923 9.26703 10.966L11.0574 10.9996C10.9971 11.7137 10.9099 12.3373 10.5679 12.971C9.26033 15.3816 5.57899 15.4822 4.14065 13.1487C3.07112 11.412 3.67127 8.66606 4.6838 7.05338C6.02491 4.92102 8.47913 3.51956 11.0205 3.59332L11.0239 3.58325Z" fill="#030303"/>
<path d="M0.00335092 10.9895C-1.84165e-06 9.6551 0.248103 8.29388 0.720842 7.04665C2.31005 2.8624 6.4876 -0.098096 11.0239 0.00248698V1.80628C10.7356 1.81298 10.4405 1.81633 10.1555 1.84651C9.17317 1.95044 8.11704 2.22203 7.2185 2.63106C3.99985 4.09287 1.79038 7.41546 1.84402 10.9895H0H0.00335092Z" fill="#030303"/>
<path d="M18.3933 10.9895C18.3564 11.194 18.4469 11.4119 18.4301 11.6098C17.9339 17.2692 13.6457 21.8893 7.78176 21.9732C7.6577 21.9732 7.55042 22.0335 7.4096 21.9732V20.166C7.54371 20.1593 7.68117 20.1761 7.81528 20.166C10.1186 19.9984 12.2342 19.1367 13.8737 17.5106C14.0447 17.3396 14.3733 17.0077 14.4973 16.82C14.5242 16.7797 14.5275 16.7496 14.4973 16.7127L14.5946 16.7261C14.6281 16.6288 14.7119 16.5752 14.7723 16.4947C14.8729 16.3606 14.9734 16.1997 15.0606 16.0656C16.0497 14.5703 16.6163 12.7933 16.5861 10.9895H18.3933Z" fill="#030303"/>
</svg>
