<svg width="118" height="26" viewBox="0 0 118 26" fill="none" xmlns="http://www.w3.org/2000/svg">
<path d="M32.7108 16.1948C33.5892 16.7379 34.8767 17.1872 36.2312 17.1872C38.2395 17.1872 39.413 16.1277 39.413 14.5921C39.413 13.1706 38.6016 12.3592 36.5463 11.5679C34.0653 10.6895 32.5297 9.40206 32.5297 7.25629C32.5297 4.88588 34.4944 3.12568 37.4482 3.12568C39.0039 3.12568 40.1338 3.48777 40.8111 3.86998L40.2679 5.47261C39.7717 5.20104 38.7558 4.75176 37.3778 4.75176C35.3025 4.75176 34.5112 5.99228 34.5112 7.03164C34.5112 8.45321 35.4366 9.15394 37.5354 9.96531C40.107 10.9577 41.4179 12.1983 41.4179 14.4346C41.4179 16.7815 39.6812 18.8133 36.0937 18.8133C34.6252 18.8133 33.0259 18.3841 32.2112 17.8443L32.7074 16.1981L32.7108 16.1948Z" fill="white"/>
<path d="M46.2492 4.59419C46.2727 5.27145 45.7765 5.81124 44.9852 5.81124C44.2845 5.81124 43.7883 5.26809 43.7883 4.59419C43.7883 3.92028 44.308 3.35366 45.0288 3.35366C45.7497 3.35366 46.2459 3.89681 46.2459 4.59419H46.2492ZM44.0364 18.5853V7.66196H46.0212V18.5853H44.0364Z" fill="white"/>
<path d="M58.7282 7.66195C58.6846 8.4532 58.6377 9.33163 58.6377 10.6627V17.0028C58.6377 19.5073 58.1415 21.0429 57.082 21.9883C56.0225 22.9807 54.487 23.2959 53.109 23.2959C51.731 23.2959 50.3564 22.9807 49.4746 22.394L49.9708 20.8819C50.6916 21.3345 51.8215 21.7402 53.176 21.7402C55.2078 21.7402 56.6964 20.6807 56.6964 17.9281V16.7111H56.6529C56.0427 17.7269 54.8692 18.5383 53.176 18.5383C50.467 18.5383 48.5258 16.235 48.5258 13.2141C48.5258 9.51268 50.9397 7.41385 53.4443 7.41385C55.3386 7.41385 56.3779 8.40628 56.8507 9.30817H56.8943L56.9848 7.66195H58.7215H58.7282ZM56.673 11.9736C56.673 11.635 56.6495 11.3433 56.559 11.0717C56.1969 9.92173 55.2279 8.97289 53.7829 8.97289C51.8886 8.97289 50.5341 10.5755 50.5341 13.1035C50.5341 15.2459 51.617 17.0296 53.7594 17.0296C54.9765 17.0296 56.0829 16.2618 56.512 14.9978C56.626 14.6592 56.6696 14.277 56.6696 13.9383V11.9736H56.673Z" fill="white"/>
<path d="M61.796 10.6191C61.796 9.48921 61.7725 8.5672 61.7054 7.66195H63.4656L63.5796 9.46574H63.6232C64.1664 8.42638 65.427 7.41385 67.2342 7.41385C68.7462 7.41385 71.0932 8.31574 71.0932 12.0641V18.5853H69.1083V12.2888C69.1083 10.5286 68.4546 9.0634 66.5804 9.0634C65.2728 9.0634 64.2569 9.98877 63.9183 11.0952C63.8277 11.3433 63.7842 11.6819 63.7842 12.0205V18.5886H61.7993V10.6224L61.796 10.6191Z" fill="white"/>
<path d="M80.367 18.5853L80.2094 17.2073H80.1424C79.5322 18.0656 78.3587 18.8334 76.803 18.8334C74.5902 18.8334 73.4637 17.2777 73.4637 15.6952C73.4637 13.0532 75.8106 11.6115 80.0317 11.6316V11.407C80.0317 10.5051 79.7836 8.87901 77.5507 8.87901C76.5348 8.87901 75.4753 9.19416 74.7075 9.69037L74.2549 8.3828C75.1568 7.79607 76.4677 7.41385 77.8424 7.41385C81.1817 7.41385 81.9931 9.69374 81.9931 11.8831V15.9668C81.9931 16.9156 82.0367 17.841 82.1741 18.5853H80.3704H80.367ZM80.072 13.013C77.9061 12.9694 75.4451 13.3516 75.4451 15.4739C75.4451 16.7614 76.3034 17.3682 77.3193 17.3682C78.7409 17.3682 79.6428 16.4663 79.9613 15.5409C80.0284 15.3364 80.0753 15.1118 80.0753 14.9106V13.0163L80.072 13.013Z" fill="white"/>
<path d="M85.1949 2.56242H87.1798V18.5853H85.1949V2.56242Z" fill="white"/>
<path d="M100.403 13.0331C100.403 17.0732 97.6035 18.8334 94.9649 18.8334C92.0078 18.8334 89.7279 16.6675 89.7279 13.2141C89.7279 9.55961 92.1184 7.41385 95.1426 7.41385C98.1668 7.41385 100.4 9.69373 100.4 13.0331H100.403ZM91.7362 13.1471C91.7362 15.5376 93.1142 17.3447 95.0521 17.3447C96.99 17.3447 98.3679 15.5611 98.3679 13.1035C98.3679 11.2528 97.4426 8.90583 95.0957 8.90583C92.7487 8.90583 91.7328 11.0717 91.7328 13.1471H91.7362Z" fill="white"/>
<path d="M102.908 11.0717C102.908 9.78427 102.884 8.6812 102.817 7.66531H104.554L104.621 9.80774H104.711C105.208 8.33923 106.405 7.41721 107.736 7.41721C107.96 7.41721 108.118 7.44069 108.299 7.48427V9.35846C108.094 9.31487 107.893 9.29142 107.622 9.29142C106.223 9.29142 105.231 10.3509 104.959 11.8429C104.916 12.1144 104.869 12.4296 104.869 12.7682V18.592H102.904V11.0784L102.908 11.0717Z" fill="white"/>
<path d="M20.0239 5.58325V7.30322C20.0239 7.30322 20.0541 7.32335 20.0507 7.34012L20.0004 7.3904C19.3466 7.41387 18.6895 7.50775 18.0726 7.73239C15.9536 8.49682 14.18 10.8974 14.4248 13.2209C14.6226 15.0884 17.0466 15.6952 17.9586 13.9652C18.0424 13.8042 18.314 13.0398 18.0525 12.9962H16.4197C16.3224 11.6384 17.0667 10.2738 18.257 9.62335C20.614 8.33589 23.6147 9.78764 23.8125 12.5168C24.1176 16.758 20.6542 20.4528 16.4062 20.4025V18.5954C16.8488 18.5954 17.3283 18.5451 17.7608 18.4445C20.2217 17.8644 22.2032 15.3633 22.0087 12.8018C21.9048 11.4104 20.3256 10.4817 19.1052 11.3165C18.6895 11.6015 18.3207 12.2519 18.2603 12.7414C18.2503 12.8152 18.2335 12.8923 18.267 12.966L20.0574 12.9996C19.9971 13.7137 19.9099 14.3373 19.5679 14.971C18.2603 17.3816 14.579 17.4822 13.1407 15.1487C12.0711 13.412 12.6713 10.6661 13.6838 9.05338C15.0249 6.92102 17.4791 5.51956 20.0205 5.59332L20.0239 5.58325Z" fill="white"/>
<path d="M9.00335 12.9895C9 11.6551 9.2481 10.2939 9.72084 9.04665C11.3101 4.8624 15.4876 1.9019 20.0239 2.00249V3.80628C19.7356 3.81298 19.4405 3.81633 19.1555 3.84651C18.1732 3.95044 17.117 4.22203 16.2185 4.63106C12.9998 6.09287 10.7904 9.41546 10.844 12.9895H9H9.00335Z" fill="white"/>
<path d="M27.3933 12.9895C27.3564 13.194 27.4469 13.4119 27.4301 13.6098C26.9339 19.2692 22.6458 23.8894 16.7818 23.9732C16.6577 23.9732 16.5504 24.0335 16.4096 23.9732V22.166C16.5437 22.1593 16.6812 22.1761 16.8153 22.166C19.1186 21.9984 21.2342 21.1367 22.8737 19.5106C23.0447 19.3397 23.3733 19.0077 23.4974 18.82C23.5242 18.7797 23.5275 18.7496 23.4974 18.7127L23.5946 18.7261C23.6281 18.6289 23.7119 18.5752 23.7723 18.4947C23.8729 18.3606 23.9734 18.1997 24.0606 18.0656C25.0497 16.5703 25.6163 14.7933 25.5861 12.9895H27.3933Z" fill="white"/>
</svg>
